<svg xmlns="http://www.w3.org/2000/svg" xmlns:xlink="http://www.w3.org/1999/xlink" version="1.1" x="0px" y="0px" viewBox="-55 147 500 500" style="enable-background:new -55 147 500 500" xml:space="preserve">
    <g>
        <path d="M367.5,338.3l-35.7-61.5c-2.1,1.6-4.4,3.1-6.7,4.4c-1.2,0.7-2.5,1.4-3.8,2l35.5,61.2C360.1,342,363.7,340,367.5,338.3z"/>
        <path d="M262.4,357.3c-21.7-37.5-70.1-50.3-107.7-28.7c-37.7,21.6-50.6,69.7-28.9,107.2s70.1,50.3,107.7,28.7   C271.2,442.8,284.1,394.7,262.4,357.3z"/>
        <path d="M266.1,284c-1.8-0.8-3.6-1.8-5.4-2.8c-1.8-1.1-3.6-2.2-5.3-3.4l-21,36.2c3.7,1.8,7.3,3.8,10.7,6.1L266.1,284z"/>
        <path d="M126.7,280.5c-1.8,1.1-3.7,2-5.6,2.9l21.5,37.1c1.7-1.2,3.5-2.3,5.4-3.3c1.7-1,3.5-1.9,5.3-2.8l-21.5-37   C130.2,278.4,128.5,279.4,126.7,280.5z"/>
        <path d="M59.8,390.2c0.2,2.1,0.3,4.1,0.3,6.2c0,2-0.1,4-0.3,6H102c-0.3-4.1-0.2-8.2,0-12.3H59.8V390.2z"/>
        <path d="M120.3,510.7c1.9,0.9,3.8,1.8,5.6,2.9c1.8,1,3.5,2.1,5.1,3.3l22.1-38.2c-3.7-1.8-7.2-3.9-10.7-6.2L120.3,510.7z"/>
        <path d="M261.6,512.8c1.8-1,3.5-1.9,5.3-2.7l-21.6-37.2c-1.7,1.1-3.4,2.2-5.1,3.2c-1.8,1.1-3.7,2-5.6,3l21.6,37.3   C258,515,259.7,513.8,261.6,512.8z"/>
        <path d="M286.1,390.2c0.3,4.1,0.3,8.2,0,12.3h44c-0.2-2-0.3-4-0.3-6c0-2.1,0.1-4.2,0.3-6.2L286.1,390.2L286.1,390.2z"/>
        <path d="M267.4,269.7c11.8,6.8,25.5,8.6,38.6,5.1s24.1-11.9,30.9-23.6s8.6-25.4,5.1-38.4c-3.5-13.1-11.9-24-23.7-30.7   c-11.8-6.8-25.5-8.6-38.6-5.1c-4.4,1.2-8.5,2.9-12.4,5.1c-7.6,4.4-14,10.7-18.5,18.5c-6.8,11.7-8.6,25.4-5.1,38.4   C247.2,252.1,255.6,263,267.4,269.7z"/>
        <path d="M158.6,230.6h70.2c-0.3-4.1-0.2-8.2,0.3-12.3h-70.5C158.9,222.4,158.9,226.5,158.6,230.6z"/>
        <path d="M120.1,269c24.3-14,32.7-45,18.6-69.1s-45.2-32.5-69.5-18.5s-32.7,45-18.6,69.1S95.7,282.9,120.1,269z"/>
        <path d="M67.2,282.9c-3.7-1.7-7.3-3.8-10.6-6.3l-35.4,61c3.8,1.6,7.4,3.6,10.8,5.9L67.2,282.9z"/>
        <path d="M46.8,396.4c0-13.5-5.3-26.2-14.9-35.8c-9.6-9.6-22.4-14.8-36-14.8s-26.4,5.3-36,14.8c-9.6,9.6-14.9,22.3-14.9,35.8   c0,27.9,22.8,50.6,50.9,50.6S46.8,424.3,46.8,396.4z"/>
        <path d="M67.1,510.7l-35.5-61.2c-1.2,0.8-2.4,1.5-3.6,2.3c-2.3,1.3-4.7,2.5-7.2,3.6l35.7,61.5C59.7,514.5,63.3,512.4,67.1,510.7z"/>
        <path d="M119.2,525.1c-11.8-6.8-25.5-8.6-38.6-5.1c-4.4,1.2-8.5,2.9-12.4,5.1c-7.6,4.4-14,10.7-18.5,18.5   c-6.8,11.7-8.6,25.4-5.1,38.4c3.5,13.1,11.9,24,23.7,30.7c16.3,9.4,35.7,8.7,51,0c7.5-4.3,13.9-10.5,18.6-18.5   c6.8-11.7,8.6-25.4,5.1-38.4C139.4,542.7,131,531.8,119.2,525.1z"/>
        <path d="M229.7,563.2h-71.9c0.4,4.1,0.3,8.2-0.1,12.3h72.2C229.4,571.4,229.3,567.3,229.7,563.2z"/>
        <path d="M268.3,524.3c-24.3,14-32.7,45-18.6,69.1c14,24.2,45.2,32.5,69.5,18.5s32.7-45,18.6-69.1   C323.8,518.6,292.6,510.3,268.3,524.3z"/>
        <path d="M321.4,510.4c3.7,1.7,7.2,3.9,10.6,6.3l36-62c-3.8-1.7-7.4-3.7-10.7-6.1L321.4,510.4z"/>
        <path d="M430.1,360.6c-9.6-9.6-22.4-14.8-36-14.8c-28.1,0-50.9,22.7-50.9,50.6S366,447,394.1,447s50.9-22.7,50.9-50.6   C445,382.9,439.7,370.2,430.1,360.6z"/>
    </g>
</svg>
