<?xml version="1.0" standalone="no"?>
<!DOCTYPE svg PUBLIC "-//W3C//DTD SVG 20010904//EN"
 "http://www.w3.org/TR/2001/REC-SVG-20010904/DTD/svg10.dtd">
<svg version="1.0" xmlns="http://www.w3.org/2000/svg"
 width="700.000000pt" height="700.000000pt" viewBox="0 0 700.000000 700.000000"
 preserveAspectRatio="xMidYMid meet">
<metadata>
Created by potrace 1.11, written by Peter Selinger 2001-2013
</metadata>
<g transform="translate(0.000000,700.000000) scale(0.100000,-0.100000)"
fill="#000000" stroke="none">
<path d="M2030 6609 c-41 -4 -100 -15 -130 -24 -30 -9 -65 -19 -77 -22 -13 -3
-23 -9 -23 -14 0 -5 -9 -9 -20 -9 -11 0 -20 -4 -20 -10 0 -5 -5 -10 -11 -10
-18 0 -123 -77 -165 -122 -77 -80 -125 -161 -165 -276 -25 -72 -29 -97 -33
-202 -10 -275 148 -530 402 -651 72 -34 108 -46 161 -55 18 -3 43 -8 55 -10
57 -11 181 -4 259 16 166 41 291 121 392 251 205 263 200 627 -11 883 -118
143 -286 233 -469 252 -27 3 -54 6 -60 8 -5 1 -44 -1 -85 -5z"/>
<path d="M4837 6605 c-1 -2 -27 -5 -57 -9 -207 -23 -389 -137 -505 -316 -62
-96 -84 -150 -105 -260 -21 -106 -7 -282 29 -365 76 -176 162 -280 302 -364
367 -220 829 -79 1013 309 96 202 87 447 -24 645 -116 209 -349 348 -599 359
-28 2 -52 2 -54 1z"/>
<path d="M2995 6000 c-1 -3 -3 -42 -3 -87 l-1 -83 489 0 488 0 4 83 c2 45 2
84 1 86 -3 5 -975 7 -978 1z"/>
<path d="M1546 5158 c-7 -13 -96 -165 -196 -338 -101 -173 -205 -353 -231
-398 -27 -46 -49 -86 -49 -88 0 -2 18 -12 39 -23 22 -10 55 -28 74 -40 l35
-21 69 117 c37 65 73 125 78 134 6 10 17 30 26 46 21 37 237 410 260 448 10
17 28 47 39 68 19 35 20 38 3 44 -10 3 -42 21 -71 40 -29 18 -54 33 -57 33 -2
0 -11 -10 -19 -22z"/>
<path d="M5350 5139 c-36 -21 -69 -40 -74 -42 -5 -2 24 -59 64 -128 40 -68 80
-137 90 -154 78 -136 330 -568 333 -571 2 -3 31 11 63 31 32 19 65 38 73 43
14 8 -6 44 -209 392 -21 36 -89 153 -150 260 -62 107 -116 198 -119 202 -3 4
-35 -11 -71 -33z"/>
<path d="M2547 5136 c-32 -18 -63 -38 -68 -43 -7 -7 39 -94 132 -254 78 -134
146 -250 152 -257 8 -10 13 -10 26 1 9 8 40 27 68 43 29 16 53 32 53 35 0 4
-36 69 -80 144 -45 75 -90 154 -101 174 -11 20 -29 52 -42 72 -12 19 -33 54
-46 77 -14 23 -27 42 -30 42 -3 0 -32 -16 -64 -34z"/>
<path d="M4303 5096 c-23 -39 -87 -149 -142 -245 -97 -167 -112 -201 -92 -201
6 0 38 -16 71 -36 34 -20 63 -34 64 -32 9 9 286 493 286 497 0 3 -33 24 -73
47 l-73 40 -41 -70z"/>
<path d="M3428 4605 c-2 -1 -32 -5 -68 -9 -240 -22 -496 -150 -676 -338 -330
-343 -394 -883 -153 -1299 109 -189 300 -363 486 -445 32 -14 67 -30 78 -34
32 -14 134 -42 205 -56 78 -15 295 -16 365 -3 28 6 59 12 71 15 12 2 55 15 98
29 379 124 667 455 741 855 11 58 15 292 5 340 -4 25 -10 59 -13 75 -10 61
-60 201 -98 273 -190 362 -544 581 -966 596 -40 2 -74 2 -75 1z"/>
<path d="M605 4209 c-69 -10 -144 -33 -200 -62 -22 -12 -42 -21 -45 -22 -12
-1 -98 -66 -135 -101 -65 -63 -111 -125 -148 -199 -57 -113 -72 -182 -71 -325
1 -107 5 -136 28 -205 63 -188 187 -331 361 -418 96 -48 182 -69 300 -73 127
-4 228 19 345 77 122 62 249 189 307 309 52 107 55 119 72 234 49 347 -194
692 -544 775 -67 15 -197 20 -270 10z"/>
<path d="M6157 4204 c-460 -86 -714 -585 -510 -1002 94 -194 280 -341 490
-388 57 -13 233 -12 297 2 252 53 445 228 533 483 23 66 27 93 27 201 1 213
-62 368 -206 511 -105 103 -246 176 -378 196 -66 10 -192 8 -253 -3z"/>
<path d="M1610 3511 l0 -86 292 0 293 0 0 86 1 85 -293 0 -293 0 0 -85z"/>
<path d="M4779 3588 c0 -5 -1 -43 -2 -85 l0 -78 306 -1 306 -1 0 86 0 86 -304
0 c-168 0 -305 -3 -306 -7z"/>
<path d="M5710 2672 c-30 -53 -58 -98 -62 -100 -4 -2 -8 -9 -8 -15 0 -7 -18
-40 -40 -75 -22 -34 -40 -65 -40 -68 0 -2 -36 -65 -80 -138 -44 -74 -80 -136
-80 -139 0 -2 -24 -45 -54 -94 -83 -138 -79 -128 -48 -144 15 -7 47 -27 71
-43 l44 -29 24 29 c12 16 23 32 23 36 0 3 86 154 191 335 106 180 203 348 217
373 14 25 31 54 38 65 19 27 18 33 -8 41 -12 3 -43 20 -69 35 -25 16 -50 29
-55 29 -5 0 -34 -44 -64 -98z"/>
<path d="M1140 2724 c-36 -19 -66 -39 -68 -44 -3 -9 164 -303 364 -643 35 -59
64 -109 64 -111 0 -3 14 -28 32 -55 27 -45 33 -50 47 -37 9 7 42 28 74 46 40
22 55 36 48 44 -5 6 -19 29 -31 51 -12 22 -72 126 -133 230 -61 105 -122 211
-136 236 -86 151 -186 319 -191 318 -3 0 -34 -16 -70 -35z"/>
<path d="M2714 2358 c-27 -46 -53 -92 -59 -103 -31 -55 -170 -293 -181 -310
-22 -31 -17 -40 34 -64 26 -12 58 -30 71 -41 l25 -18 78 137 c43 75 83 143 88
151 37 61 135 236 135 242 0 7 -130 88 -140 88 -2 0 -25 -37 -51 -82z"/>
<path d="M4160 2410 c-14 -10 -42 -27 -63 -36 -21 -10 -37 -23 -35 -30 2 -7
68 -125 148 -263 l145 -250 35 21 c19 12 52 30 73 41 43 24 43 33 -9 115 -19
29 -34 54 -34 56 0 2 -43 77 -95 167 -52 90 -99 171 -104 179 -12 22 -33 22
-61 0z"/>
<path d="M4878 1816 c-1 -2 -34 -6 -73 -10 -237 -20 -464 -181 -564 -399 -48
-103 -62 -165 -66 -282 -7 -203 57 -365 200 -511 83 -84 161 -136 259 -173 61
-23 201 -48 252 -45 211 10 372 79 508 219 270 277 265 722 -11 991 -118 116
-264 186 -418 200 -33 3 -65 7 -72 9 -6 2 -13 2 -15 1z"/>
<path d="M2020 1798 c-297 -31 -529 -219 -619 -499 -18 -56 -22 -78 -28 -162
-5 -71 10 -217 25 -242 4 -5 7 -16 8 -23 4 -24 63 -142 93 -185 67 -99 199
-203 311 -247 399 -157 838 53 959 460 17 58 23 101 25 180 2 66 -1 96 -18
185 -6 28 -44 123 -69 170 -18 35 -41 66 -117 158 -24 29 -131 104 -196 136
-75 37 -152 59 -228 67 -34 3 -63 7 -66 8 -3 1 -39 -1 -80 -6z"/>
<path d="M2985 1170 c-2 -3 -4 -42 -4 -87 l0 -81 502 0 502 0 0 86 -1 86 -498
0 c-274 1 -499 -1 -501 -4z"/>
</g>
</svg>
